<?xml version="1.0" encoding="utf-8"?>
<svg version="1.1" xmlns:xlink="http://www.w3.org/1999/xlink" width="32px" height="26px" xmlns="http://www.w3.org/2000/svg">
  <g transform="matrix(1 0 0 1 -263 -212 )">
    <path d="M 19.625 15.9453125  C 21.3108974358974 14.5755208333333  22.1538461538462 12.9270833333333  22.1538461538462 11  C 22.1538461538462 9.07291666666666  21.3108974358974 7.42447916666667  19.625 6.0546875  C 17.9391025641026 4.68489583333333  15.9102564102564 4  13.5384615384615 4  C 11.1666666666667 4  9.13782051282051 4.68489583333333  7.45192307692308 6.0546875  C 5.76602564102564 7.42447916666667  4.92307692307692 9.07291666666666  4.92307692307692 11  C 4.92307692307692 12.9270833333333  5.76602564102564 14.5755208333333  7.45192307692308 15.9453125  C 9.13782051282051 17.3151041666667  11.1666666666667 18  13.5384615384615 18  C 15.9102564102564 18  17.9391025641026 17.3151041666667  19.625 15.9453125  Z M 31.2884615384615 22.59375  C 31.7628205128205 22.9791666666667  32 23.4479166666667  32 24  C 32 24.5416666666667  31.7564102564103 25.0104166666667  31.2692307692308 25.40625  C 30.7820512820513 25.8020833333333  30.2051282051282 26  29.5384615384615 26  C 28.8461538461538 26  28.2692307692308 25.8020833333333  27.8076923076923 25.40625  L 21.2115384615385 20.0625  C 18.9166666666667 21.3541666666667  16.3589743589744 22  13.5384615384615 22  C 11.7051282051282 22  9.95192307692308 21.7109375  8.27884615384615 21.1328125  C 6.60576923076923 20.5546875  5.16346153846154 19.7734375  3.95192307692308 18.7890625  C 2.74038461538462 17.8046875  1.77884615384615 16.6328125  1.06730769230769 15.2734375  C 0.355769230769231 13.9140625  0 12.4895833333333  0 11  C 0 9.51041666666666  0.355769230769231 8.0859375  1.06730769230769 6.7265625  C 1.77884615384615 5.3671875  2.74038461538462 4.1953125  3.95192307692308 3.2109375  C 5.16346153846154 2.2265625  6.60576923076923 1.4453125  8.27884615384615 0.867187500000001  C 9.95192307692308 0.289062499999999  11.7051282051282 0  13.5384615384615 0  C 15.3717948717949 0  17.125 0.289062499999999  18.7980769230769 0.867187500000001  C 20.4711538461538 1.4453125  21.9134615384615 2.2265625  23.125 3.2109375  C 24.3365384615385 4.1953125  25.2980769230769 5.3671875  26.0096153846154 6.7265625  C 26.7211538461538 8.0859375  27.0769230769231 9.51041666666666  27.0769230769231 11  C 27.0769230769231 13.2916666666667  26.2820512820513 15.3697916666667  24.6923076923077 17.234375  L 31.2884615384615 22.59375  Z " fill-rule="nonzero" fill="#aaaaaa" stroke="none" transform="matrix(1 0 0 1 263 212 )" />
  </g>
</svg>