<?xml version="1.0" encoding="utf-8"?>
<svg version="1.1" xmlns:xlink="http://www.w3.org/1999/xlink" width="16px" height="16px" viewBox="376 368  16 16" xmlns="http://www.w3.org/2000/svg">
  <path d="M 384 368  C 388.48 368  392 371.52  392 376  C 392 380.48  388.48 384  384 384  C 379.52 384  376 380.48  376 376  C 376 371.52  379.52 368  384 368  Z " fill-rule="nonzero" fill="#ffffff" stroke="none" />
  <path d="M 384 368.5  C 388.2 368.5  391.5 371.8  391.5 376  C 391.5 380.2  388.2 383.5  384 383.5  C 379.8 383.5  376.5 380.2  376.5 376  C 376.5 371.8  379.8 368.5  384 368.5  Z " stroke-width="1" stroke="#8c8c8c" fill="none" />
  <path d="M 384 380  C 381.76 380  380 378.24  380 376  C 380 373.76  381.76 372  384 372  C 386.24 372  388 373.76  388 376  C 388 378.24  386.24 380  384 380  " fill-rule="nonzero" fill="#8c8c8c" stroke="none" />
</svg>