<?xml version="1.0" encoding="utf-8"?>
<svg version="1.1" xmlns:xlink="http://www.w3.org/1999/xlink" width="27px" height="21px" xmlns="http://www.w3.org/2000/svg">
  <g transform="matrix(1 0 0 1 -214 -115 )">
    <path d="M 15.591796875 5.373046875  C 15.697265625 5.455078125  15.75 5.55989583333333  15.75 5.6875  L 15.75 11.8125  C 15.75 11.9401041666667  15.697265625 12.044921875  15.591796875 12.126953125  C 15.486328125 12.208984375  15.3515625 12.25  15.1875 12.25  L 9.5625 12.25  C 9.3984375 12.25  9.263671875 12.208984375  9.158203125 12.126953125  C 9.052734375 12.044921875  9 11.9401041666667  9 11.8125  L 9 10.9375  C 9 10.8098958333333  9.052734375 10.705078125  9.158203125 10.623046875  C 9.263671875 10.541015625  9.3984375 10.5  9.5625 10.5  L 13.5 10.5  L 13.5 5.6875  C 13.5 5.55989583333333  13.552734375 5.455078125  13.658203125 5.373046875  C 13.763671875 5.291015625  13.8984375 5.25  14.0625 5.25  L 15.1875 5.25  C 15.3515625 5.25  15.486328125 5.291015625  15.591796875 5.373046875  Z M 21.779296875 14.232421875  C 22.634765625 13.0930989583333  23.0625 11.8489583333333  23.0625 10.5  C 23.0625 9.15104166666667  22.634765625 7.90690104166667  21.779296875 6.767578125  C 20.923828125 5.62825520833333  19.763671875 4.72591145833333  18.298828125 4.060546875  C 16.833984375 3.39518229166667  15.234375 3.0625  13.5 3.0625  C 11.765625 3.0625  10.166015625 3.39518229166667  8.701171875 4.060546875  C 7.236328125 4.72591145833333  6.076171875 5.62825520833333  5.220703125 6.767578125  C 4.365234375 7.90690104166667  3.9375 9.15104166666667  3.9375 10.5  C 3.9375 11.8489583333333  4.365234375 13.0930989583333  5.220703125 14.232421875  C 6.076171875 15.3717447916667  7.236328125 16.2740885416667  8.701171875 16.939453125  C 10.166015625 17.6048177083333  11.765625 17.9375  13.5 17.9375  C 15.234375 17.9375  16.833984375 17.6048177083333  18.298828125 16.939453125  C 19.763671875 16.2740885416667  20.923828125 15.3717447916667  21.779296875 14.232421875  Z M 25.189453125 5.2294921875  C 26.396484375 6.83821614583333  27 8.59505208333333  27 10.5  C 27 12.4049479166667  26.396484375 14.1617838541667  25.189453125 15.7705078125  C 23.982421875 17.3792317708333  22.3447265625 18.6529947916667  20.2763671875 19.591796875  C 18.2080078125 20.5305989583333  15.94921875 21  13.5 21  C 11.05078125 21  8.7919921875 20.5305989583333  6.7236328125 19.591796875  C 4.6552734375 18.6529947916667  3.017578125 17.3792317708333  1.810546875 15.7705078125  C 0.603515625 14.1617838541667  0 12.4049479166667  0 10.5  C 0 8.59505208333333  0.603515625 6.83821614583333  1.810546875 5.2294921875  C 3.017578125 3.62076822916667  4.6552734375 2.34700520833333  6.7236328125 1.408203125  C 8.7919921875 0.469401041666665  11.05078125 0  13.5 0  C 15.94921875 0  18.2080078125 0.469401041666665  20.2763671875 1.408203125  C 22.3447265625 2.34700520833333  23.982421875 3.62076822916667  25.189453125 5.2294921875  Z " fill-rule="nonzero" fill="#aaaaaa" stroke="none" fill-opacity="0.909803921568627" transform="matrix(1 0 0 1 214 115 )" />
  </g>
</svg>