<?xml version="1.0" encoding="utf-8"?>
<svg version="1.1" xmlns:xlink="http://www.w3.org/1999/xlink" width="200px" height="39px" viewBox="49 106  200 39" xmlns="http://www.w3.org/2000/svg">
  <path d="M 49.5 111  A 4.5 4.5 0 0 1 54 106.5 L 244 106.5  A 4.5 4.5 0 0 1 248.5 111 L 248.5 140  A 4.5 4.5 0 0 1 244 144.5 L 54 144.5  A 4.5 4.5 0 0 1 49.5 140 L 49.5 111  Z " fill-rule="nonzero" fill="#f2f2f2" stroke="none" fill-opacity="0.909803921568627" />
  <path d="M 49.5 111  A 4.5 4.5 0 0 1 54 106.5 L 244 106.5  A 4.5 4.5 0 0 1 248.5 111 L 248.5 140  A 4.5 4.5 0 0 1 244 144.5 L 54 144.5  A 4.5 4.5 0 0 1 49.5 140 L 49.5 111  Z " stroke-width="1" stroke="#333333" fill="none" />
</svg>