<?xml version="1.0" encoding="utf-8"?>
<svg version="1.1" xmlns:xlink="http://www.w3.org/1999/xlink" width="9px" height="12px" xmlns="http://www.w3.org/2000/svg">
  <g transform="matrix(1 0 0 1 -495 -210 )">
    <path d="M 8.78787878787879 8.96969696969697  C 8.92929292929293 9.15824915824916  9 9.38720538720539  9 9.65656565656566  C 9 9.92592592592593  8.92929292929293 10.1548821548822  8.78787878787879 10.3434343434343  L 7.75757575757576 11.7171717171717  C 7.61616161616162 11.9057239057239  7.44444444444444 12  7.24242424242424 12  C 7.04040404040404 12  6.86868686868687 11.9057239057239  6.72727272727273 11.7171717171717  L 4.5 8.74747474747475  L 2.27272727272727 11.7171717171717  C 2.13131313131313 11.9057239057239  1.95959595959596 12  1.75757575757576 12  C 1.55555555555556 12  1.38383838383838 11.9057239057239  1.24242424242424 11.7171717171717  L 0.212121212121212 10.3434343434343  C 0.0707070707070708 10.1548821548822  0 9.92592592592593  0 9.65656565656566  C 0 9.38720538720539  0.0707070707070708 9.15824915824916  0.212121212121212 8.96969696969697  L 2.43939393939394 6  L 0.212121212121212 3.03030303030303  C 0.0707070707070708 2.84175084175084  0 2.61279461279461  0 2.34343434343434  C 0 2.07407407407407  0.0707070707070708 1.84511784511784  0.212121212121212 1.65656565656566  L 1.24242424242424 0.282828282828283  C 1.38383838383838 0.0942760942760938  1.55555555555556 0  1.75757575757576 0  C 1.95959595959596 0  2.13131313131313 0.0942760942760938  2.27272727272727 0.282828282828283  L 4.5 3.25252525252525  L 6.72727272727273 0.282828282828283  C 6.86868686868687 0.0942760942760938  7.04040404040404 0  7.24242424242424 0  C 7.44444444444444 0  7.61616161616162 0.0942760942760938  7.75757575757576 0.282828282828283  L 8.78787878787879 1.65656565656566  C 8.92929292929293 1.84511784511784  9 2.07407407407407  9 2.34343434343434  C 9 2.61279461279461  8.92929292929293 2.84175084175084  8.78787878787879 3.03030303030303  L 6.56060606060606 6  L 8.78787878787879 8.96969696969697  Z " fill-rule="nonzero" fill="#8c8c8c" stroke="none" transform="matrix(1 0 0 1 495 210 )" />
  </g>
</svg>