<?xml version="1.0" encoding="utf-8"?>
<svg version="1.1" xmlns:xlink="http://www.w3.org/1999/xlink" width="29px" height="28px" xmlns="http://www.w3.org/2000/svg">
  <g transform="matrix(1 0 0 1 -277 -202 )">
    <path d="M 17.78515625 17.171875  C 19.3130008012821 15.6967147435897  20.0769230769231 13.9214743589744  20.0769230769231 11.8461538461538  C 20.0769230769231 9.77083333333333  19.3130008012821 7.99559294871795  17.78515625 6.52043269230769  C 16.2573116987179 5.04527243589743  14.4186698717949 4.30769230769231  12.2692307692308 4.30769230769231  C 10.1197916666667 4.30769230769231  8.28114983974359 5.04527243589743  6.75330528846154 6.52043269230769  C 5.22546073717949 7.99559294871795  4.46153846153846 9.77083333333333  4.46153846153846 11.8461538461538  C 4.46153846153846 13.9214743589744  5.22546073717949 15.6967147435897  6.75330528846154 17.171875  C 8.28114983974359 18.6470352564103  10.1197916666667 19.3846153846154  12.2692307692308 19.3846153846154  C 14.4186698717949 19.3846153846154  16.2573116987179 18.6470352564103  17.78515625 17.171875  Z M 28.3551682692308 24.3317307692308  C 28.7850560897436 24.7467948717949  29 25.2516025641026  29 25.8461538461538  C 29 26.4294871794872  28.7792467948718 26.9342948717949  28.3377403846154 27.3605769230769  C 27.896233974359 27.786858974359  27.3733974358974 28  26.7692307692308 28  C 26.1418269230769 28  25.6189903846154 27.786858974359  25.2007211538462 27.3605769230769  L 19.2229567307692 21.6057692307692  C 17.1432291666667 22.9967948717949  14.8253205128205 23.6923076923077  12.2692307692308 23.6923076923077  C 10.6077724358974 23.6923076923077  9.01893028846154 23.3810096153846  7.50270432692308 22.7584134615385  C 5.98647836538462 22.1358173076923  4.67938701923077 21.2944711538462  3.58143028846154 20.234375  C 2.48347355769231 19.1742788461538  1.61207932692308 17.9122596153846  0.967247596153846 16.4483173076923  C 0.322415865384615 14.984375  0 13.4503205128205  0 11.8461538461538  C 0 10.2419871794872  0.322415865384615 8.70793269230769  0.967247596153846 7.24399038461538  C 1.61207932692308 5.78004807692308  2.48347355769231 4.51802884615385  3.58143028846154 3.45793269230769  C 4.67938701923077 2.39783653846154  5.98647836538462 1.55649038461538  7.50270432692308 0.933894230769232  C 9.01893028846154 0.311298076923076  10.6077724358974 0  12.2692307692308 0  C 13.9306891025641 0  15.51953125 0.311298076923076  17.0357572115385 0.933894230769232  C 18.5519831730769 1.55649038461538  19.8590745192308 2.39783653846154  20.95703125 3.45793269230769  C 22.0549879807692 4.51802884615385  22.9263822115385 5.78004807692308  23.5712139423077 7.24399038461538  C 24.2160456730769 8.70793269230769  24.5384615384615 10.2419871794872  24.5384615384615 11.8461538461538  C 24.5384615384615 14.3141025641026  23.818108974359 16.5520833333333  22.3774038461538 18.5600961538462  L 28.3551682692308 24.3317307692308  Z " fill-rule="nonzero" fill="#aaaaaa" stroke="none" transform="matrix(1 0 0 1 277 202 )" />
  </g>
</svg>